<svg xmlns="http://www.w3.org/2000/svg" viewBox="0 0 24 24" xml:space="preserve"><path d="m12.65 17.534-2.01 1.931a.499.499 0 0 1-.468.125l-.318-.079c.242.982.544 2.194.663 2.624C10.775 23.057 11.27 24 13 24c.69 0 1.239-.283 1.545-.796.44-.739.265-1.759-.105-2.442a440.332 440.332 0 0 0-1.79-3.228zm1.608-4.483L12.707 11.5 17 7.207 15.293 5.5 11.5 9.293 11.207 9l4.146-4.146a.5.5 0 0 0 0-.707l-1-1a.5.5 0 0 0-.707 0L11.5 5.293l-.146-.146a.5.5 0 0 0-.707 0l-1 1a.5.5 0 0 0 0 .707L9.793 7 5.19 11.603l-2.447 1.468a.497.497 0 0 0-.096.075l-1 1a.5.5 0 0 0 0 .707l2 2a.498.498 0 0 0 .708 0l1-1a.497.497 0 0 0 .075-.096l.092-.153c.02.091.056.178.126.249l2 2a.503.503 0 0 0 .232.131l2 .5a.501.501 0 0 0 .468-.125l1.759-1.69c.267.203.575.328.895.328.384 0 .768-.146 1.061-.438l1-1a1.501 1.501 0 0 0 0-2.121c-.228-.224-.512-.336-.805-.387zM4.603 15.19 4 15.793 2.707 14.5l.603-.603 2.447-1.468a.497.497 0 0 0 .096-.075l.646-.646.293.293-.646.646a.497.497 0 0 0-.075.096L4.603 15.19zm1.415-.415.879-1.465.603-.603.293.293-1.775 1.775zM10.207 8 14 4.207l.293.293L10.5 8.293 10.207 8zm4.147 6.854-1 1a.5.5 0 0 1-.707-.707l.031-.031a.934.934 0 0 0 .151.175.937.937 0 0 0 .609.213c.07 0 .123-.007.146-.011a.5.5 0 0 0-.082-.993.493.493 0 0 0-.035-.172l.181-.181a.498.498 0 0 1 .708 0 .504.504 0 0 1-.002.707zm8-12.708-2-2a.5.5 0 0 0-.783.096L18.4 2.193l1.906 1.906 1.951-1.171a.5.5 0 0 0 .097-.782zm-6.19 7.311L14.121 11.5l.653.653c.367.112.713.299.994.58.389.389.625.887.699 1.422l1.844-1.844a.5.5 0 0 0 0-.707l-2.147-2.147zm-.166-4.666 1.707 1.707 1.793-1.793-1.707-1.707-1.793 1.793z"/></svg>