<svg xmlns="http://www.w3.org/2000/svg" viewBox="0 0 24 24" xml:space="preserve"><path d="M22.001 6.347V6.5c0 2.749-1.494 5.613-1.558 5.733a.502.502 0 0 1-.675.209.5.5 0 0 1-.209-.675c.015-.027 1.442-2.77 1.442-5.267V4.849a11.607 11.607 0 0 0-1.708-1.741c-.155-.127-.368-.118-.545-.026-.177.092-.281.312-.267.511.009.134.02.269.02.406a6.497 6.497 0 0 1-2.867 5.39.5.5 0 0 0-.193.576c.366 1.076.56 2.297.56 3.534 0 3.498-1.558 6.489-3.5 6.936v-3.229l.146.146a.498.498 0 0 0 .708 0 .5.5 0 0 0 0-.707l-.147-.145h.793a.5.5 0 0 0 0-1h-.793l.146-.146a.5.5 0 0 0-.707-.707l-.146.146V1a.5.5 0 0 0-1 0v13.793l-.146-.146a.5.5 0 0 0-.707.707l.146.146h-.793a.5.5 0 0 0 0 1h.793l-.146.146a.5.5 0 0 0 .708.707l.146-.146v3.229c-1.942-.447-3.5-3.438-3.5-6.936 0-1.237.194-2.458.56-3.534a.5.5 0 0 0-.193-.576A6.497 6.497 0 0 1 5.502 4c0-.137.01-.272.024-.47a.5.5 0 0 0-.817-.421A11.56 11.56 0 0 0 3.001 4.85V6.5c0 2.497 1.428 5.24 1.442 5.267a.5.5 0 0 1-.885.466C3.495 12.112 2 9.248 2 6.5v-.153A11.454 11.454 0 0 0 .5 12c0 6.341 5.159 11.5 11.5 11.5S23.5 18.341 23.5 12a11.44 11.44 0 0 0-1.499-5.653z"/></svg>