<svg xmlns="http://www.w3.org/2000/svg" viewBox="0 0 24 24" xml:space="preserve"><path d="M10 13.235V11.53a.495.495 0 0 0-.159-.364.5.5 0 0 0-.345-.139h-.029c-2.521.144-3.967.862-3.967 1.972 0 .35 0 1 2 1 .771.001 1.575-.15 2.114-.277a.498.498 0 0 0 .386-.487zM7.5 20a.5.5 0 1 0 0 1 .5.5 0 0 0 0-1zM10 8c0 .827.673 1.5 1.5 1.5h1c.671 0 1.265-.451 1.445-1.098a.497.497 0 0 1 .109-.193.531.531 0 0 1 .347-.235c2.982-.558 5.216-.329 6.488.651-.554-3.594-3.244-6.534-6.915-7.38A1.499 1.499 0 0 0 12.5 0h-1a1.5 1.5 0 0 0-1.473 1.234c-.033.007-.064.018-.096.026.04.073.069.151.069.24V8zM8.845 19.848c.024.049.044.1.063.152H10v-1.849l-1.084 1.626c-.019.029-.047.047-.071.071zM9 7.879V1.536a8.966 8.966 0 0 0-5.889 7.089C4.295 7.712 6.321 7.459 9 7.879zM16.5 20a.5.5 0 1 0 0 1 .5.5 0 0 0 0-1zm-1.967-8.972h-.029a.495.495 0 0 0-.345.139.495.495 0 0 0-.159.364v1.705c0 .234.159.434.385.487.54.127 1.344.278 2.115.278 2 0 2-.65 2-1 0-1.111-1.446-1.83-3.967-1.973zm9.284 7.869-2.641-7.482a.527.527 0 0 1-.211-.415c0-.63-.216-1.116-.661-1.485-.964-.8-2.922-.98-5.516-.52A2.506 2.506 0 0 1 12.5 10.5h-1a2.5 2.5 0 0 1-2.291-1.506c-2.593-.46-4.55-.28-5.513.52-.445.369-.661.855-.661 1.485a.525.525 0 0 1-.211.415L.183 18.896A3.203 3.203 0 0 0 0 19.962a3.175 3.175 0 0 0 2.477 3.122C4.328 23.501 7.482 24 12 24s7.673-.498 9.524-.916A3.174 3.174 0 0 0 24 19.962c0-.363-.062-.721-.183-1.065zM4.5 13c0-1.005.638-2.728 4.911-2.97a1.507 1.507 0 0 1 1.59 1.5v1.705c0 .7-.476 1.301-1.157 1.461-.59.139-1.477.305-2.343.305C6.758 15 4.5 15 4.5 13zm14.447 4.724-1 2c-.025.05-.07.079-.107.116.099.2.16.422.16.66 0 .827-.673 1.5-1.5 1.5a1.497 1.497 0 0 1-1.408-1H8.908c-.207.581-.757 1-1.408 1-.827 0-1.5-.673-1.5-1.5 0-.238.061-.46.16-.66-.037-.037-.082-.066-.107-.116l-1-2a.5.5 0 1 1 .895-.447l.931 1.862c.19-.087.399-.139.622-.139.228 0 .441.055.635.146l1.931-2.897.449-.897A1.497 1.497 0 0 1 12.001 14c.776 0 1.409.595 1.485 1.352l.449.897 1.931 2.897c.194-.091.407-.146.635-.146.222 0 .432.052.622.139l.931-1.862a.5.5 0 1 1 .893.447zM16.5 15c-.867 0-1.753-.166-2.344-.305A1.494 1.494 0 0 1 13 13.234v-1.705a1.507 1.507 0 0 1 1.59-1.5c4.272.242 4.911 1.965 4.911 2.97C19.5 15 17.242 15 16.5 15zM12 17c-.384 0-.731-.149-.997-.388l-.003.006V20h2v-3.382l-.003-.006A1.491 1.491 0 0 1 12 17zm0-1a.5.5 0 1 0 0-1 .5.5 0 0 0 0 1zm2 2.151V20h1.092c.019-.052.039-.102.063-.152-.024-.024-.052-.042-.071-.071L14 18.151z"/></svg>