<svg xmlns="http://www.w3.org/2000/svg" viewBox="0 0 24 24" xml:space="preserve"><path d="M12.5 11.513H16a.5.5 0 0 1 0 1h-3.5v4.986c5.151-.135 9.465-2.315 9.95-4.986H20a.5.5 0 0 1 0-1h2.454c-.214-1.19-1.185-2.321-2.791-3.229a.5.5 0 0 1 .492-.87c1.949 1.101 3.097 2.543 3.302 4.099h.017c-.265-6.109-5.302-11-11.474-11-6.173 0-11.209 4.891-11.474 11H3a.5.5 0 0 1 0 1H1.546c.214 1.19 1.185 2.321 2.791 3.229a.5.5 0 1 1-.493.87C1.895 15.511.747 14.069.542 12.513H.525C.782 18.455 5.559 23.231 11.5 23.487v-.018c-3.36-.434-5.93-5.189-5.994-11.231C3.761 11.62 2.5 9.969 2.5 8.013c0-2.481 2.019-4.5 4.5-4.5.198 0 .388.034.579.059C8.777 1.603 10.335.513 12 .513c3.646 0 6.5 5.051 6.5 11.5a.5.5 0 0 1-1 0c0-5.37-2.243-9.954-5-10.455v3.455a.5.5 0 0 1-1 0V1.559c-1.051.188-2.055.975-2.901 2.261 1.691.648 2.901 2.276 2.901 4.193 0 2.481-2.019 4.5-4.5 4.5-.167 0-.325-.031-.488-.049.122 5.172 2.308 9.512 4.988 9.999v-9.95H11a.5.5 0 0 1 0-1h.5v-1.5a.5.5 0 0 1 1 0v1.5zm10.957.998v.001c-.427 3.308-5.046 5.849-10.957 5.986v3.968c1.19-.214 2.321-1.185 3.229-2.791a.5.5 0 0 1 .87.492c-1.101 1.949-2.543 3.097-4.099 3.302v.017c5.942-.257 10.717-5.033 10.975-10.975h-.018zM7.5 8.013a.5.5 0 1 0-1 0 .5.5 0 0 0 1 0z"/></svg>