<svg xmlns="http://www.w3.org/2000/svg" viewBox="0 0 24 24" xml:space="preserve"><path d="M17.904 5.707c.056-.384.095-.782.095-1.207 0-2.565-1.075-4.5-2.5-4.5-1.206 0-2.154 1.393-2.419 3.374-.301-.209-.667-.374-1.081-.374s-.781.166-1.081.374C10.653 1.393 9.706 0 8.499 0c-1.425 0-2.5 1.935-2.5 4.5 0 .424.039.823.095 1.207C1.383 11.692.057 22.966.003 23.444A.5.5 0 0 0 .5 24h10a.5.5 0 0 1-.5-.5v-2a.5.5 0 0 1 1 0v2a.5.5 0 0 1-.5.5h3a.5.5 0 0 1-.5-.5v-2a.5.5 0 0 1 1 0v2a.5.5 0 0 1-.5.5h10a.5.5 0 0 0 .497-.556c-.056-.478-1.382-11.752-6.093-17.737zM15.499 3c.827 0 1.5.673 1.5 1.5s-.673 1.5-1.5 1.5-1.5-.673-1.5-1.5.673-1.5 1.5-1.5zm-7 0c.827 0 1.5.673 1.5 1.5S9.326 6 8.499 6s-1.5-.673-1.5-1.5.673-1.5 1.5-1.5zM7.447 21.764c-.199-.831-.384-2.04-.429-3.601.401.122.717.245.979.366-.006.838-.289 2.178-.55 3.235zm9.104.001c-.261-1.058-.545-2.398-.55-3.236a7.78 7.78 0 0 1 .979-.366c-.045 1.561-.229 2.77-.429 3.602zm.573-4.684c-1.625.436-2.26.906-2.776 1.287-.532.395-.854.632-2.35.632s-1.817-.238-2.35-.632c-.516-.381-1.15-.852-2.776-1.287-.945-2.616-1.071-7.875-.318-9.719.451 1.004 1.137 1.639 1.944 1.639 1.391 0 2.441-1.848 2.491-4.323.185-.233.609-.677 1.009-.677.403 0 .821.439 1.01.683.051 2.471 1.1 4.317 2.49 4.317.807 0 1.493-.634 1.944-1.639.753 1.843.628 7.103-.318 9.719zM15.499 5.5a.5.5 0 0 0 .5-.5V4a.5.5 0 0 0-1 0v1a.5.5 0 0 0 .5.5zm1 6.5c-1.021 0-1.579.646-2.072 1.216-.572.66-1.111 1.284-2.428 1.284s-1.856-.624-2.428-1.284C9.078 12.646 8.519 12 7.499 12a.5.5 0 0 0 0 1c.241 0 .432.072.615.192a.493.493 0 0 0-.115.308c0 1.557.836 4.5 4 4.5s4-2.943 4-4.5a.495.495 0 0 0-.115-.308c.183-.12.374-.192.615-.192a.5.5 0 0 0 0-1zm-6.707-.293a.5.5 0 0 0 .354-.853.5.5 0 0 1 .707-.707.5.5 0 0 0 .707-.707 1.501 1.501 0 0 0-2.121 0 1.501 1.501 0 0 0 0 2.121.498.498 0 0 0 .353.146zm3.353-1.561a.5.5 0 0 1 .707.707.5.5 0 0 0 .708.707 1.501 1.501 0 0 0 0-2.121 1.501 1.501 0 0 0-2.121 0 .5.5 0 0 0 .706.707zM8.499 5.5a.5.5 0 0 0 .5-.5V4a.5.5 0 0 0-1 0v1a.5.5 0 0 0 .5.5z"/></svg>