<svg xmlns="http://www.w3.org/2000/svg" viewBox="0 0 24 24" xml:space="preserve"><path d="m11.912 9.006-.497-3.002.002.001-.517-3.129-2.062.696c-.042.014-.075.041-.11.064a8.779 8.779 0 0 0-1.58.793l4.579 4.59c.061-.006.123-.009.185-.013zm-2.118.992c.24-.264.522-.491.841-.658L6.329 5.024a9.107 9.107 0 0 0-1.303 1.294l3.68 3.68h1.088zM4.435 7.141A8.996 8.996 0 0 0 3.25 9.999h4.043L4.435 7.141zM18.97 6.32a9.252 9.252 0 0 0-.552-.618l-.001.001a9.089 9.089 0 0 0-.744-.67l-4.322 4.322a2.99 2.99 0 0 1 1.29 1.296l4.332-4.332-.001-.001-.002.002zm.979 5.051a3.416 3.416 0 0 1 1.003-.307 8.912 8.912 0 0 0-1.393-3.915l-4.081 4.079 3.155.789 1.316-.646zm.904-9.518a.5.5 0 0 0 0-.707l-1-1a.507.507 0 0 0-.514-.12l-6.097 2.059a9.942 9.942 0 0 1 5.148 2.231l2.463-2.463zm-8.137 5.904.117.702 4.023-4.023A8.923 8.923 0 0 0 12 2.999l-.066.003.781 4.731.001.024zm9.198 2.998 2.06-6.097a.503.503 0 0 0-.12-.514l-1-1a.5.5 0 0 0-.707 0l-2.464 2.464a9.95 9.95 0 0 1 2.231 5.147zM4.5 13.999a.5.5 0 1 0 0 1 .5.5 0 0 0 0-1zm13.485-.55-3.002-1.286a2.964 2.964 0 0 1-.984 2.041v1.605l4.276 2.138a.499.499 0 0 0 .37.031l3.184-.974-2.015-4.453-1.829.898zM12 9.999a2 2 0 1 0-.001 3.999A2 2 0 0 0 12 9.999zm9.5 2c-.263 0-.521.059-.773.144l2.035 4.496A2.474 2.474 0 0 0 24 14.499c0-1.378-1.121-2.5-2.5-2.5zM14 16.926v3.822a8.988 8.988 0 0 0 2.869-1.195l-2.407-2.396-.462-.231zm-6.5-.927a.5.5 0 1 0 0 1 .5.5 0 0 0 0-1zm2 3a.5.5 0 1 0 0 1 .5.5 0 0 0 0-1zm-.5-7c0-.353.072-.686.184-1H1.5a.504.504 0 0 0-.354.146l-1 1a.504.504 0 0 0-.146.354c0 5.804 5.696 11.5 11.5 11.5a.5.5 0 0 0 .447-.276l1-2a.512.512 0 0 0 .053-.224v-6.684a2.962 2.962 0 0 1-1 .184 3 3 0 0 1-3-3zm-4.5 4c-.827 0-1.5-.673-1.5-1.5s.673-1.5 1.5-1.5 1.5.673 1.5 1.5-.673 1.5-1.5 1.5zm1.5.5c0-.827.673-1.5 1.5-1.5s1.5.673 1.5 1.5-.673 1.5-1.5 1.5-1.5-.673-1.5-1.5zm3.5 4.5c-.827 0-1.5-.673-1.5-1.5s.673-1.5 1.5-1.5 1.5.673 1.5 1.5-.673 1.5-1.5 1.5z"/></svg>