<svg xmlns="http://www.w3.org/2000/svg" viewBox="0 0 24 24" xml:space="preserve"><path d="M10.026 14a.5.5 0 0 1 .5-.5h13.449a2.503 2.503 0 0 0-2.449-2h-4.551c-.245-1.692-1.691-3-3.449-3a.507.507 0 0 0-.155.024c-.926.302-2.721 1.873-3.211 2.976H6.776l-.75-1h.5c.827 0 1.5-.673 1.5-1.5s-.673-1.5-1.5-1.5h-5c-.827 0-1.5.673-1.5 1.5 0 .722.514 1.327 1.195 1.468l1.026 1.759c-.138.227-.221.49-.221.773 0 .827.673 1.5 1.5 1.5h.046l1.022 1.752a.5.5 0 0 0 .432.248h16.5c1.207 0 2.217-.86 2.449-2H10.526a.5.5 0 0 1-.5-.5zm-4-5.5h.5a.5.5 0 0 1 0 1h-.5v-1zm-4.5 1a.5.5 0 0 1 0-1h3.5v1h-3.5zm5.5 4h-3.5a.5.5 0 0 1 0-1h3.5v1zm1.5 0h-.5v-1h.5a.5.5 0 0 1 0 1z"/></svg>